<svg xmlns="http://www.w3.org/2000/svg" xmlns:xlink="http://www.w3.org/1999/xlink" width="229" height="204" viewBox="0 0 229 204">
    <defs>
        <linearGradient id="a" x1="50%" x2="50%" y1="0%" y2="100%">
            <stop offset="0%" stop-color="#A1D4F4"/>
            <stop offset="100%" stop-color="#009DFF"/>
        </linearGradient>
        <path id="b" d="M13.926 156.02c-1.415-27.51 1.112-51.7 7.582-72.567 6.469-20.868 12.561-19.138 18.276 5.188-.62 6.413-1.308 10.435-2.065 12.065-1.135 2.446-6.952 15.552-9.003 21.107-2.052 5.555-5.363 13.695-7.208 18.444-1.846 4.749-5.69 13.488-5.208 15.763.32 1.516-.471 1.516-2.374 0z"/>
        <filter id="c" width="111.4%" height="103.4%" x="-5.7%" y="-1.7%" filterUnits="objectBoundingBox">
            <feOffset dx="-1" dy="-3" in="SourceAlpha" result="shadowOffsetInner1"/>
            <feComposite in="shadowOffsetInner1" in2="SourceAlpha" k2="-1" k3="1" operator="arithmetic" result="shadowInnerInner1"/>
            <feColorMatrix in="shadowInnerInner1" values="0 0 0 0 0.329873787 0 0 0 0 0.467890685 0 0 0 0 0.659279337 0 0 0 0.274796196 0"/>
        </filter>
        <path id="d" d="M37.542 110.705c0-6.702-2.975-16.293-2.006-20.22.645-2.62 7.447-3.515 20.406-2.687.164 13.194-.475 21.258-1.915 24.193-1.44 2.935-5.288 7.754-11.542 14.456-.746-3.362-1.911-4.998-3.496-4.908-1.584.09-2.605.98-3.064 2.671-.172-1.44.055-3.036.68-4.784.937-2.624.937-2.018.937-8.72z"/>
        <filter id="e" width="114.5%" height="107.7%" x="-7.3%" y="-3.9%" filterUnits="objectBoundingBox">
            <feOffset dx="-3" dy="1" in="SourceAlpha" result="shadowOffsetInner1"/>
            <feComposite in="shadowOffsetInner1" in2="SourceAlpha" k2="-1" k3="1" operator="arithmetic" result="shadowInnerInner1"/>
            <feColorMatrix in="shadowInnerInner1" values="0 0 0 0 0.329873787 0 0 0 0 0.467890685 0 0 0 0 0.659279337 0 0 0 0.274796196 0"/>
        </filter>
        <linearGradient id="f" x1="103.607%" x2="50.763%" y1="25.125%" y2="98.935%">
            <stop offset="0%" stop-color="#7FE9D7"/>
            <stop offset="100%" stop-color="#16CBAC"/>
        </linearGradient>
        <linearGradient id="g" x1="0%" x2="143.283%" y1="50%" y2="100%">
            <stop offset="0%" stop-color="#FFF" stop-opacity="0"/>
            <stop offset="100%" stop-color="#525C6C"/>
        </linearGradient>
    </defs>
    <g fill="none" fill-rule="evenodd" transform="translate(0 -7)">
        <g transform="translate(31)">
            <ellipse cx="54.179" cy="209" fill="#32314F" opacity=".172" rx="7.525" ry="2"/>
            <ellipse cx="81.269" cy="208.875" fill="#32314F" opacity=".172" rx="5.017" ry="1.375"/>
            <path fill="#FFE1CA" d="M127.798 57.618c.78-4.858 1.664-8.541 2.654-11.049.99-2.507 1.735-4.582 2.233-6.225.834-.612 1.188-.307 1.06.916-.127 1.223-.48 2.993-1.06 5.31 2.076.516 3.465 1.027 4.164 1.532 1.05.758-.475 3.259-1.94 6.559-.978 2.2-1.968 4.278-2.971 6.235l-4.14-3.278zM49.532 57.08c-.78-4.858-1.664-8.54-2.654-11.048-.99-2.508-1.735-4.583-2.233-6.226-.834-.612-1.188-.306-1.06.916.127 1.223.48 2.993 1.06 5.31-2.076.516-3.464 1.027-4.164 1.532-1.05.758.475 3.26 1.94 6.56.978 2.2 1.968 4.277 2.971 6.234l4.14-3.277z"/>
            <g transform="translate(40.133 39.5)">
                <use fill="url(#a)" xlink:href="#b"/>
                <use fill="#000" filter="url(#c)" xlink:href="#b"/>
            </g>
            <path fill="#333F52" d="M55.227 193.538a3.296 3.296 0 0 1 3.009 3.272l.03 9.121a4.124 4.124 0 0 1-4.484 4.122 4.124 4.124 0 0 1-3.699-4.838l1.613-8.977a3.296 3.296 0 0 1 3.531-2.7z"/>
            <g transform="translate(40.133 39.5)">
                <use fill="url(#a)" xlink:href="#d"/>
                <use fill="#000" filter="url(#e)" xlink:href="#d"/>
            </g>
            <path fill="url(#f)" d="M3.68 18.45c2.15 0 4.257-.924 6.323-2.772C14.35 30.923 21.933 41.1 32.752 46.21c8.653 5.247 15.697 7.003 24.795 1.702 10.705.684 28.412-16.696 30.194-32.235.496 2.223 4.562 3.22 5.852 3.22-1.813 7.89-6.684 28.15-32.52 40.28-6.493 5.09-3.526 21.972-.5 29.882-4.225 3.603-24.94 7.367-44.049-2.986 4.129-1.937 12.057-21.357 6.434-31.248C12.16 42.382 6.033 26.165 3.68 18.45z" transform="translate(40.133 39.5)"/>
            <path fill="#333F52" d="M93.98 92.848c2.059 1.548 3.342 3.732 3.342 6.152 0 2.395-1.257 4.558-3.279 6.103 2.237 5.508.946 11.456-3.345 14.034-1.347.81-2.848 1.201-4.392 1.218-2.064 1.967-4.688 3.145-7.545 3.145-6.65 0-12.04-6.38-12.04-14.25 0-4.973 2.152-9.35 5.414-11.9-1.503-1.46-2.404-3.323-2.404-5.35 0-2.572 1.45-4.877 3.739-6.435 1.543-2.09 2.475-3.677 2.795-4.762.435-1.475.387-3.649-.143-6.52a8.787 8.787 0 0 1-.371-2.533c0-5.109 4.38-9.25 9.782-9.25 5.403 0 9.783 4.141 9.783 9.25 0 .564-.054 1.116-.156 1.652 2.396 1.332 4.003 3.494 4.157 5.958.036.076.064.152.086.229 1.025 3.636-1.901 9.44-4.18 11.41a4.037 4.037 0 0 0-1.244 1.85zM79.438 160.5a3.245 3.245 0 0 1 3.236 3.001l.94 12.497a4.188 4.188 0 0 1-4.176 4.502 4.188 4.188 0 0 1-4.176-4.502l.94-12.497a3.245 3.245 0 0 1 3.236-3.001z"/>
            <path stroke="#356BB0" stroke-linecap="round" stroke-width=".5" d="M81.77 154.373c1.195-.481 4.539-.66 5.955.482" opacity=".385"/>
            <g>
                <path fill="#FFB883" d="M145.014 151.482c-.999.74-1.95 1.355-2.855 1.845-1.885 1.02-4.268 1.035-4.313.936-.243-.538 2.045-3.034 3.631-3.341.95-.184 2.13.002 3.537.56z"/>
                <path fill="#FFDF87" d="M133.97 125.78c3.349 7.1 8.254 11.321 14.714 12.663-.016 1.722-.843 4.924-3.55 12.856-.251.739-1.464.616-3.636-.37-1.442 2.592-2.6 3.7-3.473 3.326-7.576-3.243-10.757-6.45-11.818-10.697.145-4.657 2.733-10.583 7.763-17.779z"/>
            </g>
            <g>
                <path fill="#FF96BC" d="M10.891 22.401c4.923 1.67 7.84 7.349 9.006 13.115 3.61-2.405 9.396-7.18 13.562-11.31.199-.197.501-.984.663-1.193.98-1.26.393-2.579.373-3.269-1.123-3.393-1.63-6.414-4.25-9.206-1.343-1.432-2.572-2.492-3.165-2.824-2.572.897-4.77 5.14-16.189 14.687z"/>
                <path fill="#F46DA0" d="M31.77 20.645c1.432-.092 2.786 2.407 1.4 3.876 1.457-1.574 1.654-2.954 1.632-4.095-.022-1.14-.095-6.47-7.712-12.683 6.21 5.507 7.851 9.74 4.68 12.902z"/>
            </g>
            <g stroke="url(#g)" stroke-linecap="round" stroke-width="2" opacity=".38" transform="translate(0 168.5)">
                <path d="M122.907 23.196c7.005-4.83 10.79-13.41 5.395-18.696M0 8.5c4.333 4.527 19.478 10.786 38.956 11.572M76.252 21.688c25.835-.393 38.986-4.524 39.453-12.393.7-11.803-14.887-10.871-13.228-5.436M70.734 34.121c14.627 1 26.577-.208 35.852-3.621M5.518 24.5c9.054 4.322 18.108 6.651 27.162 6.987"/>
            </g>
        </g>
        <circle cx="16.5" cy="45.5" r="5.5" fill="#009DFF"/>
        <circle cx="95.5" cy="19.5" r="5.5" fill="#009DFF"/>
        <circle cx="5.5" cy="172.5" r="5.5" fill="#009DFF"/>
        <circle cx="223.5" cy="89.5" r="5.5" fill="#009DFF"/>
        <rect width="11" height="11" x="44" y="64" fill="#FF7D6B" rx="1.964"/>
        <rect width="11" height="11" x="174.278" y="108.278" fill="#FF7D6B" rx="1.964" transform="rotate(45 179.778 113.778)"/>
        <path fill="#16CBAC" d="M22.5 137l5.23 3.8-1.997 6.15h-6.466l-1.998-6.15zM179.5 14l5.23 3.8-1.997 6.15h-6.466l-1.998-6.15zM197.424 162.16l2.317-6.037 6.456.339 1.674 6.245-5.423 3.522z"/>
        <path fill="#FFB053" d="M5.5 89l5.5 11H0zM201.5 51l5.5 11h-11zM124.276 40.263L112 39.526 117.5 30z"/>
        <path fill="#FFDF54" d="M55.5 114.25l-3.233 1.7.618-3.6-2.616-2.55 3.615-.525L55.5 106l1.616 3.275 3.615.525-2.616 2.55.618 3.6zM145.5 48.25l-3.233 1.7.618-3.6-2.616-2.55 3.615-.525L145.5 40l1.616 3.275 3.615.525-2.616 2.55.618 3.6z"/>
    </g>
</svg>
