<svg xmlns="http://www.w3.org/2000/svg" xmlns:xlink="http://www.w3.org/1999/xlink" width="144" height="144" viewBox="0 0 144 144">
    <defs>
        <path id="b" d="M95 18.68V4.37A4.38 4.38 0 0 0 90.6 0H79.1a4.4 4.4 0 0 0-2.89 1.08L37.1 35.38a40.39 40.39 0 0 0-6.86-.89C13.539 34.49 0 48.029 0 64.73s13.539 30.24 30.24 30.24c18.23 0 29.13-14.34 29.13-28.2A27.5 27.5 0 0 0 57 55.53l13.4-6.7a1.5 1.5 0 0 0 .83-1.34V35.63h9.23c2-.13 2.58-.77 2.64-2.83v-12H92c.275 0 .55.024.82.07a1.85 1.85 0 0 0 1.63-.37c.47-.48.674-1.16.55-1.82z"/>
        <filter id="a" width="192.6%" height="192.7%" x="-46.3%" y="-32.6%" filterUnits="objectBoundingBox">
            <feOffset dy="13" in="SourceAlpha" result="shadowOffsetOuter1"/>
            <feGaussianBlur in="shadowOffsetOuter1" result="shadowBlurOuter1" stdDeviation="12.5"/>
            <feColorMatrix in="shadowBlurOuter1" values="0 0 0 0 0.226735433 0 0 0 0 0.437054197 0 0 0 0 0.687818878 0 0 0 0.0769927536 0"/>
        </filter>
        <path id="d" d="M25.23 77.14a7.4 7.4 0 1 1 7.4-7.4 7.41 7.41 0 0 1-7.4 7.4z"/>
        <filter id="c" width="633.8%" height="633.8%" x="-266.9%" y="-179.1%" filterUnits="objectBoundingBox">
            <feOffset dy="13" in="SourceAlpha" result="shadowOffsetOuter1"/>
            <feGaussianBlur in="shadowOffsetOuter1" result="shadowBlurOuter1" stdDeviation="11"/>
            <feColorMatrix in="shadowBlurOuter1" values="0 0 0 0 0.226735433 0 0 0 0 0.437054197 0 0 0 0 0.687818878 0 0 0 0.0769927536 0"/>
        </filter>
    </defs>
    <g fill="none" fill-rule="evenodd">
        <g fill-rule="nonzero" transform="translate(24 12)">
            <use fill="#000" filter="url(#a)" xlink:href="#b"/>
            <use fill="#E3ECF3" fill-rule="evenodd" xlink:href="#b"/>
        </g>
        <g transform="translate(24 12)">
            <use fill="#000" filter="url(#c)" xlink:href="#d"/>
            <use fill="#FFF" xlink:href="#d"/>
        </g>
        <path fill="#FFF" d="M69.509 47.43a1.509 1.509 0 0 0 2 2.26l32.416-28.435a1.502 1.502 0 0 0 .134-2.125 1.516 1.516 0 0 0-2.134-.135L69.509 47.43z"/>
    </g>
</svg>
