<svg xmlns="http://www.w3.org/2000/svg" width="120" height="22" viewBox="0 0 120 22">
    <g fill="none" fill-rule="evenodd">
        <path fill="#009DFF" d="M20.178 1.133l-1.037 4.273h1.941a.917.917 0 0 1 .893 1.125l-.482 2.064a.917.917 0 0 1-.893.708h-2.406l-.801 3.426h1.94a.917.917 0 0 1 .893 1.125l-.482 2.064a.917.917 0 0 1-.893.708h-2.405l-1.108 4.669a.917.917 0 0 1-.892.705h-3.143a.917.917 0 0 1-.892-1.128l1.007-4.246H7.994l-1.108 4.669a.917.917 0 0 1-.892.705H2.851a.917.917 0 0 1-.891-1.128l1.007-4.246H.917A.917.917 0 0 1 .024 15.5l.482-2.063a.917.917 0 0 1 .893-.708h2.515l.801-3.426h-2.05a.917.917 0 0 1-.892-1.125l.482-2.064a.917.917 0 0 1 .893-.708h2.515L6.804.7c.1-.412.468-.701.89-.701h3.142a.917.917 0 0 1 .89 1.133L10.69 5.406h3.424L15.256.7c.1-.412.467-.701.89-.701h3.141a.917.917 0 0 1 .891 1.133zm-9.947 8.092l-.84 3.398h3.59l.842-3.398H10.23z"/>
        <path fill="#525C6C" d="M34.208 5.592c2.256 0 3.184 1.632 3.456 2.448l-1.872.848c-.24-.528-.656-1.216-1.632-1.216-.768 0-1.216.464-1.216 1.072 0 1.856 4.864 1.584 4.864 5.056 0 1.968-1.408 3.408-3.744 3.408-2.4 0-3.392-1.68-3.712-2.592l1.904-.928c.304.736.928 1.424 1.936 1.424.832 0 1.328-.432 1.328-1.152 0-1.92-4.832-1.6-4.832-5.184 0-1.888 1.376-3.184 3.52-3.184zm16.944 5.888V17h-2.208v-5.008c0-.992-.496-1.584-1.312-1.584-.8 0-1.36.592-1.36 1.6V17h-2.208v-5.088c0-.944-.48-1.504-1.296-1.504-.784 0-1.36.592-1.36 1.584V17H39.2V8.632h2.16v.976c.304-.576 1.04-1.184 2.176-1.184 1.072 0 1.856.48 2.288 1.248.496-.768 1.36-1.248 2.48-1.248 1.904 0 2.848 1.264 2.848 3.056zm1.184 2.928c0-1.648 1.296-2.768 3.248-2.768.848 0 1.504.256 1.808.464v-.544c0-.736-.544-1.232-1.52-1.232-.832 0-1.6.272-2.224.592l-.832-1.504c.752-.512 2.016-.992 3.296-.992 2.688 0 3.488 1.408 3.488 3.28V17h-1.952l-.144-.544c-.432.464-1.072.752-2.032.752-1.696 0-3.136-1.04-3.136-2.8zm2.208-.064c0 .688.624 1.152 1.456 1.152s1.44-.448 1.44-1.152c0-.736-.608-1.168-1.456-1.168s-1.44.48-1.44 1.168zm11.152-5.92v2.24c-1.648 0-2.256 1.024-2.256 2.688V17h-2.208V8.632h2.16v1.216c.368-.832 1.2-1.424 2.304-1.424zm1.504.208v-1.76h2.176v1.76h1.568v1.792h-1.568v3.232c0 1.248.384 1.504 1.232 1.504.144 0 .224 0 .4-.016v1.888s-.336.08-.944.08c-2 0-2.88-1.12-2.88-3.392v-3.296h-.88V8.632h.896zm4.64 5.776c0-1.648 1.296-2.768 3.248-2.768.848 0 1.504.256 1.808.464v-.544c0-.736-.544-1.232-1.52-1.232-.832 0-1.6.272-2.224.592l-.832-1.504c.752-.512 2.016-.992 3.296-.992 2.688 0 3.488 1.408 3.488 3.28V17h-1.952l-.144-.544c-.432.464-1.072.752-2.032.752-1.696 0-3.136-1.04-3.136-2.8zm2.208-.064c0 .688.624 1.152 1.456 1.152s1.44-.448 1.44-1.152c0-.736-.608-1.168-1.456-1.168s-1.44.48-1.44 1.168zm14.88-8.912V17h-2.08v-.864c-.224.272-1.056 1.072-2.48 1.072-2.4 0-4.096-1.808-4.096-4.384 0-2.592 1.568-4.4 3.968-4.4 1.44 0 2.272.8 2.48 1.088v-4.08h2.208zm-2.144 7.408c0-1.568-.928-2.464-2.144-2.464-1.28 0-2.144 1.008-2.144 2.464 0 1.488.896 2.416 2.144 2.416 1.344 0 2.144-1.088 2.144-2.416zm4.08-4.208v-1.76h2.176v1.76h1.568v1.792H93.04v3.232c0 1.248.384 1.504 1.232 1.504.144 0 .224 0 .4-.016v1.888s-.336.08-.944.08c-2 0-2.88-1.12-2.88-3.392v-3.296h-.88V8.632h.896zm4.64 5.776c0-1.648 1.296-2.768 3.248-2.768.848 0 1.504.256 1.808.464v-.544c0-.736-.544-1.232-1.52-1.232-.832 0-1.6.272-2.224.592l-.832-1.504c.752-.512 2.016-.992 3.296-.992 2.688 0 3.488 1.408 3.488 3.28V17h-1.952l-.144-.544c-.432.464-1.072.752-2.032.752-1.696 0-3.136-1.04-3.136-2.8zm2.208-.064c0 .688.624 1.152 1.456 1.152s1.44-.448 1.44-1.152c0-.736-.608-1.168-1.456-1.168s-1.44.48-1.44 1.168zm7.296 4.96l.672-1.696a5.493 5.493 0 0 0 2.384.576c1.2 0 2.304-.368 2.304-1.664v-.384c-.176.24-.992 1.072-2.448 1.072-2.416 0-4-1.808-4-4.384 0-2.576 1.696-4.4 4.08-4.4 1.408 0 2.256.768 2.496 1.088v-.88h2.08v7.312c0 3.12-2.032 4.128-4.496 4.128-1.152 0-2.32-.352-3.072-.768zm5.424-6.496c0-1.424-.864-2.432-2.16-2.432-1.248 0-2.128.96-2.128 2.432s.896 2.448 2.144 2.448c1.28 0 2.144-.96 2.144-2.448zm6.368 4.4c-1.648 0-2.672-.832-3.12-1.552l1.296-1.152c.416.48.976.912 1.92.912.624 0 1.024-.272 1.024-.752 0-1.28-3.952-.784-3.952-3.76 0-1.552 1.328-2.48 3.04-2.48 1.584 0 2.464.832 2.864 1.488L118.416 11c-.256-.32-.72-.8-1.504-.8-.512 0-.864.256-.864.672 0 1.328 3.968.688 3.968 3.68 0 1.632-1.408 2.656-3.216 2.656z"/>
    </g>
</svg>
