<svg xmlns="http://www.w3.org/2000/svg" xmlns:xlink="http://www.w3.org/1999/xlink" width="144" height="144" viewBox="0 0 144 144">
    <defs>
        <path id="b" d="M767 346.68V332.37a4.38 4.38 0 0 0-4.4-4.37h-11.5a4.4 4.4 0 0 0-2.89 1.08l-39.11 34.3a40.39 40.39 0 0 0-6.86-.89c-16.701 0-30.24 13.539-30.24 30.24s13.539 30.24 30.24 30.24c18.23 0 29.13-14.34 29.13-28.2a27.5 27.5 0 0 0-2.37-11.24l13.4-6.7a1.5 1.5 0 0 0 .83-1.34v-11.86h9.23c2-.13 2.58-.77 2.64-2.83v-12h8.9c.275 0 .55.024.82.07a1.85 1.85 0 0 0 1.63-.37c.47-.48.674-1.16.55-1.82z"/>
        <filter id="a" width="192.6%" height="192.7%" x="-46.3%" y="-32.6%" filterUnits="objectBoundingBox">
            <feOffset dy="13" in="SourceAlpha" result="shadowOffsetOuter1"/>
            <feGaussianBlur in="shadowOffsetOuter1" result="shadowBlurOuter1" stdDeviation="12.5"/>
            <feColorMatrix in="shadowBlurOuter1" values="0 0 0 0 0.226735433 0 0 0 0 0.437054197 0 0 0 0 0.687818878 0 0 0 0.0769927536 0"/>
        </filter>
    </defs>
    <g fill="none" fill-rule="nonzero" transform="translate(-648 -316)">
        <use fill="#000" filter="url(#a)" xlink:href="#b"/>
        <use fill="#E3ECF3" fill-rule="evenodd" xlink:href="#b"/>
    </g>
</svg>
