<svg xmlns="http://www.w3.org/2000/svg" xmlns:xlink="http://www.w3.org/1999/xlink" width="90" height="122" viewBox="0 0 90 122">
    <defs>
        <filter id="a" width="130.5%" height="141.3%" x="-15.2%" y="-7.1%" filterUnits="objectBoundingBox">
            <feOffset dy="5" in="SourceAlpha" result="shadowOffsetOuter1"/>
            <feGaussianBlur in="shadowOffsetOuter1" result="shadowBlurOuter1" stdDeviation="2"/>
            <feColorMatrix in="shadowBlurOuter1" result="shadowMatrixOuter1" values="0 0 0 0 0.2 0 0 0 0 0.247058824 0 0 0 0 0.321568627 0 0 0 0.2 0"/>
            <feMerge>
                <feMergeNode in="shadowMatrixOuter1"/>
                <feMergeNode in="SourceGraphic"/>
            </feMerge>
        </filter>
        <filter id="b" width="142.8%" height="544.9%" x="-21.4%" y="-222.4%" filterUnits="objectBoundingBox">
            <feGaussianBlur in="SourceGraphic" stdDeviation="4.449"/>
        </filter>
        <path id="d" d="M0 23.378C9.094 17.204 13.861 9.512 14.302.301c2.388-.354 7 .088 18.573 2.089 1.078.186 1.173 1.886.286 5.1 3.902 1.423 5.69 2.779 5.364 4.067-2.828 11.166-6.57 16.257-12.216 18.65-6.477.817-15.247-1.459-26.309-6.829z"/>
        <filter id="c" width="115.6%" height="139.8%" x="-7.8%" y="-9.9%" filterUnits="objectBoundingBox">
            <feOffset dy="6" in="SourceAlpha" result="shadowOffsetOuter1"/>
            <feColorMatrix in="shadowOffsetOuter1" values="0 0 0 0 0.560784314 0 0 0 0 0.588235294 0 0 0 0 0.631372549 0 0 0 1 0"/>
        </filter>
    </defs>
    <g fill="none" fill-rule="evenodd">
        <g filter="url(#a)" transform="translate(4 47)">
            <path fill="#1B3554" d="M9.558 51h62.38v6H9.558z" filter="url(#b)"/>
            <path fill="#E0E5EC" d="M10.061 0h62.38v39.5h-62.38z"/>
            <path fill="#CFD4DC" d="M10.061 0v60H0V23.718zM72.442 0v59.5H82V23.718z"/>
            <path fill="#FFF" d="M0 23.5h82v37a2.5 2.5 0 0 1-2.5 2.5h-77A2.5 2.5 0 0 1 0 60.5v-37z"/>
            <g transform="translate(24.65 37)">
                <rect width="10.564" height="2" x="11.067" y="12" fill="#D1D7DD" rx="1"/>
                <path fill="#1B3554" d="M1.22.568C2.096.189 2.96 0 3.812 0c.834 0 1.668.181 2.502.544a2.05 2.05 0 0 1 1.232 1.88.71.71 0 0 1-1.013.641c-.906-.428-1.82-.642-2.74-.642-.925 0-1.85.216-2.774.648A.716.716 0 0 1 0 2.423C0 1.617.48.887 1.22.568zM26.876.568C27.753.189 28.616 0 29.47 0c.834 0 1.667.181 2.501.544a2.05 2.05 0 0 1 1.232 1.88.71.71 0 0 1-1.013.641c-.906-.428-1.82-.642-2.74-.642-.924 0-1.85.216-2.774.648a.716.716 0 0 1-1.019-.648c0-.806.48-1.536 1.22-1.855z" opacity=".2"/>
            </g>
        </g>
        <path fill="#FF96BC" d="M31.49 33.868c2.372 7.621-2.065 16.375-8.197 23.031 6.263 2.311 17.446 5.185 26.364 6.63.424.068 1.679-.267 2.085-.254 2.457.08 3.57-1.84 4.41-2.49 3.213-4.458 6.519-7.817 7.629-13.593.569-2.961.777-5.444.656-6.481-3.445-2.385-10.721-1.282-32.947-6.843z"/>
        <path fill="#F46DA0" d="M52.572 58.219c1.412 1.698-.475 5.636-3.559 5.24 3.28.388 5.176-.612 6.577-1.67 1.401-1.056 7.972-5.954 8.814-21.025-1.236 12.685-5.022 18.544-11.832 17.455z"/>
        <g>
            <path fill="#FFB883" d="M62.046 7.9c.807 1.54 1.45 2.99 1.93 4.347 1.001 2.825.503 6.12.357 6.159-.798.217-3.753-3.49-3.833-5.747-.047-1.353.468-2.94 1.546-4.759z"/>
            <g transform="rotate(18 30.606 96.417)">
                <use fill="#000" filter="url(#c)" xlink:href="#d"/>
                <use fill="#FFDF87" xlink:href="#d"/>
            </g>
        </g>
    </g>
</svg>
